<svg width="3165" height="590" viewBox="0 0 3165 590" fill="none" xmlns="http://www.w3.org/2000/svg">
<g clip-path="url(#clip0_48_268)">
<path d="M2094.38 540.773L2092.4 542.169C2096.93 545.199 2101.55 548.063 2106.3 550.792L2108.85 548.205L2094.38 540.773ZM2253.05 334.007V444.175L2238.59 431.227V334.007H2253.05ZM2207.89 323.543C2207.42 323.543 2206.96 323.481 2206.51 323.364L2234.49 317.681L2202.01 317.643C2202.01 314.391 2204.65 311.749 2207.9 311.749L2291.95 311.85L2249.53 315.906L2303.81 315.946C2303.99 316.514 2304.1 317.122 2304.1 317.744C2304.1 320.996 2301.45 323.646 2298.2 323.646L2207.89 323.543ZM2243.02 221.873H2249.23V302.594H2243.02V221.873ZM2445.2 449.146L2443.72 448.137L2407.09 422.911L2356.64 477.079L2307.23 456.762L2280.14 468.621L2274.41 463.444V332.894L2298.18 332.918C2306.56 332.934 2313.37 326.133 2313.37 317.768C2313.39 309.381 2306.58 302.58 2298.22 302.58L2267.23 302.532C2266.69 301.34 2265.66 300.394 2264.34 300.007C2261.17 299.083 2258.28 297.348 2255.98 295.005C2258.36 295.565 2260.28 295.872 2262 295.95C2264.68 296.07 2267.13 294.231 2267.6 291.587C2268.04 288.945 2266.44 286.434 2263.96 285.669C2260.95 284.723 2258.21 283.027 2255.98 280.762C2258.39 281.346 2260.28 281.629 2262.02 281.709C2264.68 281.827 2267.15 280.013 2267.6 277.368C2268.06 274.702 2266.47 272.215 2263.98 271.428C2260.95 270.48 2258.21 268.8 2256 266.543C2258.4 267.103 2260.3 267.41 2262.04 267.489C2264.71 267.608 2267.17 265.77 2267.62 263.142C2268.08 260.483 2266.48 257.975 2264 257.209C2260.97 256.262 2258.22 254.557 2256.02 252.3C2258.43 252.884 2260.32 253.169 2262.06 253.248C2264.73 253.365 2267.17 251.551 2267.63 248.907C2268.08 246.24 2266.51 243.754 2264.02 242.966C2260.99 242.019 2258.25 240.338 2256.04 238.082C2258.43 238.641 2260.34 238.95 2262.06 239.029C2264.75 239.146 2267.19 237.308 2267.66 234.68C2268.1 232.022 2266.51 229.513 2264.02 228.747C2261.01 227.792 2258.26 226.095 2256.04 223.839C2258.44 224.422 2260.34 224.707 2262.08 224.786C2264.75 224.903 2267.21 223.089 2267.66 220.445C2268.12 217.779 2266.52 215.294 2264.04 214.504C2263.41 214.298 2262.81 214.078 2262.21 213.818L2284.8 191.196V185.277L2253.2 185.239L2221.56 185.19V191.133L2227.48 197.074C2234.59 204.223 2238.57 213.896 2238.57 223.98L2238.49 302.515L2207.93 302.477C2199.54 302.453 2192.74 309.262 2192.71 317.627C2192.71 326.006 2199.52 332.815 2207.89 332.815L2231.7 332.856V425.01L2229.36 422.911L2168.41 432.221L2129.49 454.221L2121.86 486.375L2108.6 505.524L2106.62 508.389L2072.77 490.619L2043.98 494.857L2041.28 497.24C2047.82 504.815 2054.87 512.01 2062.41 518.812C2071.32 526.853 2080.68 534.23 2090.59 540.914L2095.21 537.174L2112.2 544.993L2131.17 532.653L2107.45 551.457C2120.6 559.016 2134.52 565.502 2149.27 570.93C2154.98 573.053 2160.78 574.97 2166.66 576.707H2343.83C2349.75 574.97 2355.58 573.053 2361.37 570.93C2394.49 558.81 2423.58 541.444 2448.63 518.812C2457.82 510.512 2466.28 501.642 2473.98 492.213L2445.2 449.146ZM2094.38 540.773L2092.4 542.169C2096.93 545.199 2101.55 548.063 2106.3 550.792L2108.85 548.205L2094.38 540.773Z" fill="#966B28"/>
<path d="M2129.22 472.007C2121.14 475.439 2113.06 478.87 2104.98 482.302C2099.66 479.674 2094.33 477.057 2089.01 474.429C2083.43 476.18 2077.84 477.923 2072.26 479.674C2073.8 489.847 2075.35 500.018 2076.9 510.18C2089.69 516.778 2102.48 523.373 2115.27 529.978C2126.59 517.384 2137.91 504.791 2149.21 492.206C2142.54 485.468 2135.89 478.737 2129.22 472.007Z" fill="#966B28"/>
<path d="M448.438 518.812H514.693C522.773 537.135 533.544 550.203 547.013 558.006C560.466 565.817 573.4 569.716 585.797 569.716H592.259V577.796H410.46V569.716H417.734C427.961 569.716 437.13 565.272 445.21 556.388C453.29 547.496 454.354 534.972 448.438 518.812ZM298.153 0.890442L537.317 572.95H468.638L281.993 77.6501L298.153 0.890442ZM412.078 381.453H159.175V357.213H412.078V381.453ZM298.153 0.890442L305.42 57.4502L102.615 575.371H54.1357L260.981 84.112C266.905 70.6588 271.893 59.0682 275.933 49.3702C279.973 39.6722 283.469 30.2591 286.435 21.0903C289.386 11.9378 290.879 5.20716 290.879 0.890442H298.153ZM124.433 518.812C120.654 529.598 120.109 538.753 122.815 546.288C125.506 553.838 129.95 559.616 136.151 563.656C142.328 567.696 148.673 569.716 155.135 569.716H162.411V577.796H0V569.716H7.27398C19.6545 569.716 32.4451 565.817 45.6538 558.006C58.8463 550.203 69.7523 537.135 78.3756 518.812H124.433Z" fill="#966B28"/>
<path d="M930.803 151.988C936.73 135.828 935.918 123.306 928.381 114.412C920.831 105.528 912.221 101.086 902.523 101.086H896.868V93.006H1050.39V101.086H1043.92C1032.62 101.086 1021.02 104.991 1009.18 112.794C997.33 120.615 987.088 133.681 978.479 151.988H930.803ZM774.862 589.109L769.204 533.364L954.239 95.4281H1005.14L813.644 505.888C807.711 518.812 802.74 530.003 798.7 539.424C794.66 548.853 791.022 558.139 787.788 567.292C784.56 576.462 782.665 583.72 782.138 589.109H774.862ZM774.862 589.109L552.663 97.85H616.499L788.6 517.204L774.862 589.109ZM638.309 151.988H576.903C568.823 133.681 558.85 120.615 547.005 112.794C535.154 104.991 523.84 101.086 513.069 101.086H506.605V93.006H672.245V101.086H665.783C656.622 101.086 648.409 105.528 641.141 114.412C633.865 123.306 632.92 135.828 638.309 151.988Z" fill="#966B28"/>
<path d="M1385.71 518.812H1447.12C1455.2 537.135 1465.16 550.202 1477.01 558.006C1488.86 565.817 1500.17 569.716 1510.95 569.716H1517.41V577.796H1351.78V569.716H1358.24C1367.39 569.716 1375.74 565.272 1383.29 556.388C1390.83 547.496 1391.63 534.972 1385.71 518.812ZM1249.16 81.69L1471.36 572.949H1407.53L1235.42 153.598L1249.16 81.69ZM1344.5 413.772H1130.38V389.532H1344.5V413.772ZM1249.16 81.69L1254.82 137.438L1069.78 575.371H1018.88L1210.38 164.912C1216.29 151.988 1221.28 140.815 1225.32 131.378C1229.36 121.965 1233 112.669 1236.23 103.508C1239.46 94.3554 1241.35 87.0793 1241.89 81.69H1249.16ZM1093.22 518.812C1087.28 534.972 1088.09 547.496 1095.64 556.388C1103.17 565.272 1111.8 569.716 1121.5 569.716H1127.96V577.796H973.635V569.716H980.097C991.411 569.716 1002.99 565.817 1014.84 558.006C1026.68 550.202 1036.92 537.135 1045.54 518.812H1093.22Z" fill="#966B28"/>
<path d="M1930.3 462.252L1885.86 577.796H1763.04L1790.52 552.75C1817.45 552.75 1839.11 548.853 1855.56 541.032C1871.99 533.236 1885.31 522.45 1895.55 508.712C1905.77 494.976 1914.67 479.503 1922.22 462.252H1930.3ZM1885.05 552.75L1883.43 577.796H1666.08V552.75H1885.05ZM1665.28 144.712V92.998H1725.06V101.078H1715.37C1702.44 101.078 1691.25 105.259 1681.84 113.608C1672.4 121.965 1667.7 132.331 1667.7 144.712H1665.28ZM1667.7 577.796H1615.98V92.998H1667.7V577.796ZM1617.6 526.088L1628.1 577.796H1557.81V569.716H1569.12C1582.58 569.716 1593.63 565.415 1602.25 556.79C1610.86 548.182 1615.45 537.939 1615.98 526.088H1617.6ZM1617.6 144.712H1615.98C1615.45 132.331 1610.59 121.965 1601.44 113.608C1592.27 105.259 1580.97 101.078 1567.5 101.078H1557.81V92.998H1617.6V144.712Z" fill="#966B28"/>
<path d="M2440.15 454.986C2437.24 460.297 2434.18 465.425 2430.95 470.38C2430.79 470.617 2430.65 470.861 2430.49 471.083C2422.33 483.51 2413.18 494.802 2403 504.941C2402.45 505.486 2401.91 506.029 2401.36 506.55C2389.95 517.709 2377.3 527.445 2363.39 535.786C2331.07 555.172 2294.97 564.87 2255.11 564.87C2227.8 564.87 2202.17 560.183 2178.25 550.833C2177.95 550.73 2177.64 550.612 2177.34 550.469C2167.14 546.429 2157.25 541.537 2147.65 535.786C2137.73 529.829 2128.44 523.161 2119.77 515.782C2119.33 515.404 2118.87 515.018 2118.42 514.614C2115.05 511.703 2111.77 508.673 2108.6 505.524C2093.96 491.023 2081.37 474.176 2070.89 454.986C2052.02 420.519 2042.61 380.648 2042.61 335.405C2042.61 289.63 2052.02 249.634 2070.89 215.411C2089.73 181.215 2115.33 154.41 2147.65 135.014C2179.97 115.628 2215.79 105.93 2255.11 105.93C2294.97 105.93 2331.07 115.628 2363.39 135.014C2395.71 154.41 2421.28 181.215 2440.15 215.411C2458.99 249.634 2468.43 289.63 2468.43 335.405C2468.43 377.681 2460.18 415.273 2443.72 448.136C2442.57 450.441 2441.38 452.722 2440.15 454.986ZM2507.21 232.385C2493.19 201.415 2473.67 174.61 2448.63 151.988C2423.58 129.366 2394.49 111.99 2361.37 99.8699C2328.23 87.75 2292.81 81.69 2255.11 81.69C2217.4 81.69 2182.11 87.75 2149.27 99.8699C2116.4 111.99 2087.45 129.366 2062.41 151.988C2037.36 174.61 2017.83 201.415 2003.83 232.385C1989.81 263.37 1982.82 297.71 1982.82 335.405C1982.82 373.114 1989.81 407.454 2003.83 438.424C2013.6 460.075 2026.1 479.691 2041.28 497.24C2047.82 504.815 2054.87 512.01 2062.41 518.812C2071.32 526.853 2080.68 534.23 2090.59 540.914C2091.19 541.357 2091.79 541.767 2092.4 542.169C2096.93 545.199 2101.55 548.063 2106.3 550.792C2106.68 551.039 2107.07 551.259 2107.45 551.457C2120.6 559.016 2134.52 565.502 2149.27 570.93C2154.98 573.053 2160.78 574.969 2166.66 576.707C2194.49 584.966 2223.96 589.109 2255.11 589.109C2286.24 589.109 2315.82 584.966 2343.83 576.707C2349.75 574.969 2355.58 573.053 2361.37 570.93C2394.49 558.81 2423.58 541.444 2448.63 518.812C2457.82 510.512 2466.28 501.642 2473.98 492.213C2487.27 475.974 2498.34 458.032 2507.21 438.424C2521.21 407.454 2528.21 373.114 2528.21 335.405C2528.21 297.71 2521.21 263.37 2507.21 232.385Z" fill="#966B28"/>
<path d="M3104.31 143.094V92.9981H3164.91V101.078H3151.18C3139.32 101.078 3128.96 105.118 3120.07 113.198C3111.18 121.278 3106.74 131.259 3106.74 143.094H3104.31ZM3106.74 92.9981V485.688C3106.74 502.937 3107.27 519.499 3108.35 535.376C3109.43 551.275 3111.31 569.186 3114.01 589.109H3106.74L3071.19 546.288V92.9981H3106.74ZM3071.19 143.094C3070.64 131.259 3066.06 121.278 3057.45 113.198C3048.83 105.118 3038.32 101.078 3025.94 101.078H3012.2V92.9981H3072.8V143.094H3071.19ZM2686.58 527.706C2686.58 539.557 2691.02 549.516 2699.91 557.596C2708.8 565.676 2719.16 569.716 2731.02 569.716H2744.75V577.796H2684.15V527.706H2686.58ZM2651.03 80.8781L3098.66 502.652L3106.74 589.109L2659.11 164.912L2651.03 80.8781ZM2651.03 80.8781L2685.77 126.13L2686.58 577.796H2650.22V181.878C2650.22 154.41 2647.79 120.749 2642.95 80.8781H2651.03ZM2652.64 527.706V577.796H2592.04V569.716H2605.78C2618.17 569.716 2628.67 565.676 2637.29 557.596C2645.9 549.516 2650.22 539.557 2650.22 527.706H2652.64Z" fill="#966B28"/>
</g>
<defs>
<clipPath id="clip0_48_268">
<rect width="3164.91" height="588.219" fill="white" transform="translate(0 0.890442)"/>
</clipPath>
</defs>
</svg>
