<svg width="1434" height="1434" viewBox="0 0 1434 1434" fill="none" xmlns="http://www.w3.org/2000/svg">
<path d="M929.593 776.638C924.221 778.455 922.343 787.018 926.716 790.685C943.677 804.906 950.684 769.505 929.593 776.638ZM500.728 775.437C498.343 777.371 497.307 780.728 497.688 783.69C498.248 788.059 501.812 790.965 505.123 791.97C509.339 793.249 514.747 791.934 517.104 787.905C518.42 785.655 518.664 782.763 517.718 780.37C515.374 774.44 505.686 771.415 500.728 775.437ZM805.757 776.308C809.645 772.229 808.223 763.478 802.524 760.539C796.942 757.661 789.344 761.437 788.006 766.588C787.052 770.266 789.576 773.539 790.008 774.074C793.622 778.587 801.829 780.429 805.757 776.308ZM651.967 759.897C649.627 757.555 646.396 757.417 645.352 757.417C644.544 757.384 641.616 757.364 639.13 759.467C635.736 762.339 636.047 766.731 636.106 767.526C636.156 768.24 636.479 772.806 640.303 775.163C643.801 777.315 648.421 776.515 651.251 774.023C655.335 770.429 655.529 763.461 651.967 759.897ZM862.685 747.961C827.393 753.823 842.807 814.645 876.156 797.547C900.488 785.067 887.723 743.801 862.685 747.961ZM567.868 748.034C533.111 756.617 552.735 816.736 585.101 796.544C610.066 780.972 592.357 741.984 567.868 748.034ZM698.627 782.749C722.803 810.057 763.57 766.498 733.945 743.837C707.588 723.676 678.763 760.312 698.627 782.749ZM558.838 728.362C551.041 704.923 538.917 670.273 508.166 672.17C502.752 672.504 475.931 682.842 472.505 686.389C460.33 698.989 463.127 730.65 476.561 742.508L558.838 728.362ZM882.429 685.244C885.5 684.359 887.396 677.092 884.66 672.378C884.42 671.966 881.939 667.832 878.256 668.229C875.588 668.521 873.648 671.042 873.091 673.204C871.618 678.928 878.79 686.293 882.429 685.244ZM561.211 668.478C552.942 662.686 545.496 682.134 560.064 685.183C565.895 683.531 562.603 669.455 561.211 668.478ZM716.323 656.743C706.354 659.237 707.014 678.192 722.708 672.954C731.187 670.127 725.519 654.445 716.323 656.743ZM781.134 654.667C774.891 655.719 751.892 665.665 749.31 670.883L749.232 716.465L829.698 722.487C839.741 701.978 868.928 680.852 841.539 662.639C826.618 652.718 824.345 659.271 812.081 658.062C800.687 656.942 795.024 652.323 781.134 654.667ZM690.688 718.789V674.458C677.263 660.984 658.753 652.416 639.143 654.07C628.825 654.937 623.91 655.901 612.779 656.287C601.142 656.687 580.947 669.923 580.192 681.63C579.43 693.435 597.363 712.703 603.608 723.304L690.688 718.789ZM407.847 654.1C405.18 660.444 412.295 677.775 419.843 674.583C428.885 670.762 419.784 649.104 407.847 654.1ZM1031.06 651.705C1019.74 646.791 1008.89 671.367 1017.94 673.268C1026.35 675.032 1033.71 659.148 1031.06 651.705ZM894.111 606.489C882.384 599.104 871.187 620.623 881.724 627.882C894.187 636.462 899.898 610.134 894.111 606.489ZM555.839 606.797C544.32 593.222 535.217 620.293 544.329 626.669C557.597 635.964 562.757 614.949 555.839 606.797ZM710.217 594.538C705.184 598.917 706.265 607.41 709.685 612.328C710.287 613.191 713.372 617.622 717.831 617.689C725.093 617.801 733.287 606.304 729.575 598.726C726.56 592.567 715.956 589.547 710.217 594.538ZM860.869 651.68C852.75 625.141 857.255 604.899 870.896 581.429C873.815 576.406 883.146 567.852 884.389 563.683C885.318 560.571 882.51 535.732 881.416 534.117C877.037 527.658 846.283 536.09 838.076 536.641C810.354 538.512 789.204 531.02 763.736 529.5C755.503 529.011 748.003 527.566 748.101 537.761C748.177 545.451 749.767 563.404 750.819 571.214C752.02 580.147 758.257 589.757 759.621 598.346C762.288 615.142 758.349 628.794 748.218 642.083C773.629 635.373 798.162 625.763 814.136 654.042C818.777 640.854 830.859 637.262 844.201 640.823L860.869 651.68ZM688.278 646.89C686.786 637.469 679.289 629.987 677.363 620.682C672.949 599.322 679.485 583.962 690.577 566.514L690.8 530.595C668.543 525.724 646.844 535.46 624.867 536.77C599.714 538.271 576.633 532.361 551.772 532.005L547.217 558.905C566.304 578.344 583.783 604.952 580.219 633.536C579.374 640.314 574.385 646.629 575.654 654.09C585.994 638.892 613.464 627.078 618.808 651.69C627.63 653.647 627.75 645.471 633.245 640.997C643.566 632.599 660.164 633.595 672.081 637.946C679.247 640.56 681.515 645.834 688.278 646.89ZM1020.64 532.728C990.429 499.765 947.174 511.327 911.386 525.85C914.86 533.05 917.598 541.929 918.388 549.874C920.811 574.293 920.467 621.099 911.277 643.365C908.503 650.086 902.641 654.336 901.653 661.278C924.767 643.64 941.538 652.335 949.569 678.03C906.944 662.86 892.493 686.613 879.633 722.019C878.815 724.272 876.058 724.748 880.042 727.187C893.075 735.168 939.109 732.631 955.84 742.69C965.674 746.385 972.289 727.044 973.381 719.847C976.102 701.945 970.47 682.915 951.983 676.871C957.584 666.281 967.707 662.001 978.283 669.727C984.954 674.601 982.829 683.626 990.309 682.853C991.303 666.695 1001.64 647.29 1012.73 635.762C1017.91 630.387 1039.01 618.033 1040.2 614.089C1042.86 585.267 1041.07 555.022 1020.64 532.728ZM520.505 522.306C478.344 514.767 440.843 495.781 409.239 536.879C397.249 552.472 383.901 596.249 393.498 613.893C395.043 616.729 418.692 630.749 424.364 636.369C432.669 644.603 440.676 657.589 444.976 668.473C446.39 672.05 447.265 683.917 448.618 685.233C453.312 689.793 454.801 675.891 457.041 673.319C469.728 658.731 488.926 678.629 491.722 675.667C490.454 654.89 510.181 645.311 527.664 656.486C517.236 611.858 504.63 567.476 520.505 522.306ZM868.057 510.358C855.575 503.178 846.759 497.248 831.226 498.52C820.515 499.398 786.733 506.719 789.476 520.783C791.144 529.346 815.967 525.245 823.427 524.394C831.57 523.464 857.73 519.599 863.934 516.959C867.234 515.556 868.785 514.162 868.057 510.358ZM589.379 498.909C582.932 499.953 569.626 506.106 566.007 511.486C564.327 513.98 562.273 513.342 565.998 516.343C588.136 519.868 612.009 526.152 634.37 527.053C665.293 528.3 658.966 517.331 636.134 508.535C623.114 503.519 602.984 496.706 589.379 498.909ZM1045.44 735.549C1037.71 735.775 1040.01 727.428 1031.19 724.667C1005.03 716.479 1007 735.255 997.372 741.422C986.3 748.516 975.164 741.26 981.242 767.419C983.801 778.424 994.186 777.643 992.775 796.625C991.101 819.124 971.696 817.025 975.915 838.603C957.013 828.869 935.461 823.517 914.491 819.757C827.489 804.153 724.88 805.292 636.727 809.822C578.889 812.792 516.228 814.192 462.993 838.6C462.27 813.551 443.761 813.472 449.65 785.742C451.179 778.547 457.041 772.095 458.046 765.359C462.164 737.758 449.029 748.628 436.7 741.444C426.797 735.672 424.632 713.938 402.344 728.273C399.004 730.421 399.567 736.912 393.464 735.552C393.349 727.338 390.701 719.931 395.113 712.289C398.836 705.839 408.724 706.275 407.92 700.929C407.167 695.932 391.944 673.556 388.24 665.29C334.428 545.219 406.162 460.31 531.222 507.964C558.211 486.947 586.151 473.924 620.735 483.193C632.705 486.401 646.982 497.007 658.269 498.391C680.686 501.131 751.046 501.179 773.178 498.125C783.617 496.683 795.786 488.895 806.266 485.67C844.895 473.793 869.838 483.526 900.472 507.928C943.626 497.551 985.119 481.175 1024.67 510.725C1057.71 535.415 1066.25 567.457 1062.19 607.329C1058.71 641.585 1050.27 676.958 1023.93 700.817C1045.58 708.193 1047.67 712.042 1045.44 735.549Z" fill="#966B28"/>
<path d="M911.114 920.218C867.906 910.06 822.609 909.894 778.205 908.069C710.934 905.303 636.851 905.152 569.666 912.915C556.444 914.443 538.161 915.762 527.736 923.67C527.736 931.6 596.226 938.501 605.615 939.221C682.147 945.086 813.8 947.462 888.255 934.26C896.068 932.874 903.332 928.765 911.061 927.08L911.114 920.218ZM468.031 924.6L468.029 917.945C472.519 911.031 545.006 899.909 557.67 898.529C635.726 890.027 735.255 890.48 814.237 893.616C843.555 894.78 941.021 901.955 963.264 914.771C985.858 927.782 929.552 937.605 921.721 938.963C819.295 956.717 656.894 955.269 552.883 944.011C524.901 940.981 493.545 936.128 468.031 924.6Z" fill="#966B28"/>
<path d="M750.615 304.237L726.669 354.556L774.586 330.595C774.706 349.167 774.826 367.738 774.947 386.309C758.05 378.124 741.153 369.941 724.259 361.759C726.487 367.813 729.27 374.361 732.769 381.214C738.959 393.335 745.805 403.302 752.112 411.218C747.622 411.098 743.135 410.975 738.645 410.854C749.778 424.949 758.389 433.509 748.695 452.083C745.089 458.99 737.052 461.777 736.245 469.565H767.406L766.347 488.901L676.647 490.807C665.729 463.172 685.35 470.027 705.058 469.565C704.881 461.767 695.165 458.743 692.499 452.192C686.156 436.592 693.076 421.539 702.673 409.695C698.174 409.605 693.675 409.516 689.177 409.426C694.565 402.341 700.542 393.243 705.88 382.079C709.806 373.865 712.613 366.159 714.646 359.362L666.726 383.297C666.726 364.135 666.729 344.973 666.729 325.815L717.042 352.151L693.085 304.237H750.615Z" fill="#966B28"/>
<path d="M959.676 877.164C955.544 879.233 949.346 875.479 949.245 871.795C949.189 869.737 951.042 867.968 952.605 867.19C956.389 865.305 962.228 867.363 962.984 871.069C963.463 873.419 961.826 876.089 959.676 877.164ZM937.253 876.61C928.395 882.256 913.847 868.595 925.568 861.289C936.824 854.271 944.058 872.271 937.253 876.61ZM894.739 871.859C887.457 867.273 898.501 846.116 909.035 858.783C916.789 868.113 900.93 875.756 894.739 871.859ZM863.105 851.611L874.18 852.857L874.893 866.988C861.14 874.782 857.076 863.17 863.105 851.611ZM838.264 862.722L825.171 864.69L823.53 850.469L839.316 848.176L838.264 862.722ZM801.113 861.521C788.421 870.454 782.119 850.598 789.297 846.13C799.856 839.557 809.243 855.796 801.113 861.521ZM753.339 862.224C746.164 857.756 752.465 837.903 765.158 846.835C773.287 852.557 763.901 868.799 753.339 862.224ZM715.099 856.073C711.698 844.43 721.272 839.202 728.422 846.404C739.025 857.084 719.346 870.614 715.099 856.073ZM690.345 862.221C675.592 871.604 668.876 840.92 686.613 846.172C693.779 848.294 694.342 859.679 690.345 862.221ZM654.361 862.204C645.683 867.579 632.489 858.593 640.101 849.22C650.1 836.906 663.174 856.745 654.361 862.204ZM608.462 864.578C601.571 862.568 598.796 850.852 605.932 848.492C623.226 842.774 623.551 868.975 608.462 864.578ZM568.294 866.305C561.763 855.491 567.496 847.72 580.113 850.911L582.825 867.355L568.294 866.305ZM533.503 869.928C528.448 861.299 539.671 851.057 547.038 856.398L549.269 872.159L533.503 869.928ZM503.931 876.736L504.77 862.42L518.205 861.266L521.931 874.625C516.494 879.054 510.243 878.379 503.931 876.736ZM493.145 881.951L479.89 883.983L479.94 867.557C492.59 865.096 502.508 869.726 493.145 881.951ZM969.518 878.11C970.268 877.41 971.276 876.296 972.315 874.524C977.278 861.104 978.401 853.394 963.964 846.978C931.052 832.363 840.45 825.72 802.252 824.127C720.407 820.709 549.023 819.144 474.999 847.101C466.744 850.214 463.138 851.309 462.864 861.418C462.457 876.137 471.046 873.502 472.622 880.571C475.007 891.234 466.864 888.837 465.554 892.818C464.062 897.347 468.186 903.274 467.779 908.094C492.154 899.262 517.516 894.47 543.295 891.345C634.36 880.316 753.196 880.627 845.27 886.553C886.816 889.223 931.609 895.648 971.125 908.086L966.719 881.702C967.035 881.08 967.559 880.182 968.384 879.241C968.863 878.695 969.239 878.368 969.518 878.11Z" fill="#966B28"/>
<path d="M283.491 821.834C274.446 829.47 265.412 838.062 258.643 847.773C252.079 857.397 247.205 868.399 245.246 881.343C242.234 897.739 246.399 914.482 250.086 931.659C250.752 934.708 251.412 937.978 250.517 940.66C249.176 944.691 244.619 945.923 240.489 944.609C236.363 943.305 232.565 940.074 228.875 936.942C207.79 920.252 189.076 901.731 168.055 883.74C149.557 864.709 127.965 846.191 109.747 826.232C114.668 830.949 118.59 844.235 124.8 857.268C130.488 870.465 135.918 884.241 139.619 891.113C145.658 901.74 153.022 911.646 159.987 921.413C163.546 926.259 167.154 931.01 170.824 935.629C174.483 940.25 178.942 944.34 183.046 948.509C189.3 954.631 197.119 962.038 205.587 969.082C213.789 976.313 224.384 981.975 233.659 986.469C252.714 995.258 269.989 996.297 279.331 981.158C285.548 971.201 286.536 957.699 285.509 945.08C284.988 938.758 283.989 932.519 282.97 926.371C282.304 919.983 281.836 913.539 281.685 907.311C281.517 898.688 282.178 890.326 283.208 882.225C284.146 874.177 286.685 865.728 288.429 857.876C290.335 849.934 292.136 842.222 293.342 834.655C294.47 827.116 296.39 819.155 296.525 811.501C292.163 814.807 287.782 818.231 283.491 821.834Z" fill="#966B28"/>
<path d="M239.89 776.884C227.595 785.037 216.07 795.052 210.612 810.74C206.765 820.622 207.863 831.193 207.77 842.104C207.801 844.03 207.801 846.082 206.914 847.571C205.584 849.814 202.622 849.943 200.259 848.63C197.891 847.323 195.979 844.921 194.117 842.6C189.185 836.192 183.351 830.065 178.598 823.6C173.786 817.154 168.778 810.763 163.582 804.427C158.389 798.095 153.014 791.814 147.471 785.591C142.534 779.25 137.486 772.951 132.237 766.729C134.79 769.763 136.906 777.606 138.745 785.775C141.089 793.846 143.586 802.171 145.308 806.438C151.13 819.645 156.119 832.883 164.744 844.148C170.734 852.667 179.849 864.922 189.406 872.805C199.613 880.478 210.412 883.56 218.237 876.114C223.573 871.153 225.51 863.492 226.99 855.507C228.528 847.49 228.858 839.246 230.154 831.453C233.017 810.093 246.522 791.698 248.607 771.409C245.704 773.161 242.777 774.97 239.89 776.884Z" fill="#966B28"/>
<path d="M420.322 980.296C415.937 993.543 412.498 1007.34 411.554 1021.6C410.821 1035.53 413.088 1049.23 419.359 1063.35C426.805 1081.54 442.064 1094.84 456.767 1109.8C459.359 1112.52 462.287 1115.03 463.281 1118.06C464.754 1122.68 461.081 1127.03 456.041 1128.75C450.986 1130.53 445.258 1129.49 439.531 1128.84C376.825 1121.95 311.82 1110.03 248.137 1092.25C256.06 1094.23 269.592 1104.29 283.185 1115.06C297.426 1125.05 312.181 1135.3 320.426 1139.92L330.14 1145.21L340.349 1149.62C347.157 1152.5 353.965 1155.25 360.756 1157.86C367.556 1160.45 374.303 1162.96 381.089 1165.17C388.109 1166.95 395.099 1168.57 402.039 1170C412.424 1171.97 424.952 1174.84 438.33 1175.73C451.848 1176.31 465.725 1176.05 477.936 1174.18C490.048 1172.68 500.994 1167.92 508.3 1161.87C515.663 1155.73 519.56 1147.67 518.871 1137.35C517.997 1123.56 509.303 1111.39 500.182 1099C495.521 1093.05 490.491 1087.5 485.519 1082.07C480.511 1076.73 475.621 1071.37 471.618 1065.02C460.347 1048.02 452.727 1030.94 447.022 1012.34C443.988 1003.37 441.037 994.718 437.63 986.648C434.683 977.874 431.36 969.577 426.982 962.033C424.65 967.987 422.382 974.081 420.322 980.296Z" fill="#966B28"/>
<path d="M349.979 963.083C341.878 979.162 336.402 996.036 340.962 1014.67C343.8 1026.22 349.819 1038.06 357.232 1048.22C358.494 1050.1 359.807 1052.12 359.869 1054.15C359.964 1057.2 357.073 1059.2 353.848 1059.4C350.626 1059.6 347.154 1058.43 343.784 1057.31C334.308 1054.54 325.874 1050.45 316.688 1047.22C307.63 1043.84 298.386 1040.61 288.983 1037.53C271.218 1030.33 252.703 1023.71 233.972 1017.38C242.93 1020.59 263.226 1043.59 271.719 1050.59C285.764 1060.69 300.514 1069.65 315.158 1077.12C326.573 1082.08 343.873 1088.39 358.547 1090.21C373.253 1092.14 386.365 1087.73 389.245 1075.53C391.295 1067.31 388.459 1058.31 385.066 1049.22C381.497 1040.36 376.601 1032.07 372.984 1023.63C367.674 1012.37 366.467 998.937 364.261 987.096C362.223 975.027 359.794 963.768 355.745 952.17C353.78 955.728 351.827 959.362 349.979 963.083Z" fill="#966B28"/>
<path d="M254.867 632.066C244.21 634.292 233.255 637.279 223.435 642.12C213.946 646.998 205.217 653.698 197.978 663.205C193.479 669.105 189.745 675.863 186.389 683.052C183.623 690.243 181.506 697.858 179.241 705.509C178.447 708.23 177.554 711.121 175.661 712.837C172.822 715.421 168.609 714.324 165.858 711.421C163.103 708.521 161.457 704.255 159.853 700.119C157.625 694.479 155.374 688.794 153.104 683.058C151.239 677.375 149.364 671.642 147.468 665.858C143.597 654.347 139.314 642.721 135.02 631.009C131.61 619.377 127.94 607.625 124.044 595.767C122.061 589.863 120.06 583.909 118.039 577.901C116.155 571.955 114.713 566.08 112.946 560.129C115.033 571.451 109.319 610.363 108.969 624.441C109.031 635.451 110.713 646.481 111.99 657.233C113.641 668 114.802 678.548 117.938 688.746C122.873 703.916 129.58 725.952 140.759 741.346C152.339 756.838 165.819 765.583 180.048 757.983C189.429 753.023 196.091 742.852 200.713 732.405C205.673 721.908 210.236 710.587 215.304 700.486C219.043 693.505 222.761 687.095 227.707 681.036C232.729 674.978 237.916 669.276 242.919 663.683C247.924 658.087 252.745 652.603 257.031 646.945C261.373 641.293 266.359 635.622 269.889 629.385C264.928 630.166 259.897 631.028 254.867 632.066Z" fill="#966B28"/>
<path d="M239.451 576.292C225.927 577.638 212.213 580.791 200.889 591.065C194.229 597.522 189.922 606.396 185.199 615.147C184.378 616.707 183.472 618.353 182.105 619.162C180.051 620.374 177.618 619.181 176.297 617.102C174.975 615.018 174.497 612.261 174.026 609.593C172.73 602.281 171.241 594.944 169.573 587.582C168.383 580.315 167.289 573.078 165.855 565.78C164.461 558.493 162.891 551.181 161.155 543.856C160.268 540.227 159.372 536.566 158.467 532.87C157.757 529.318 157.043 525.732 156.32 522.118C157.109 528.887 151.197 551.277 150.257 559.574C149.565 566.06 149.011 572.519 148.672 578.91C148.289 585.286 149.17 591.803 149.759 598.08C150.831 607.463 152.757 621.189 156.956 631.664C161.656 642.237 169.072 649.487 178.586 646.998C185.073 645.397 189.879 640.101 194.711 634.348C199.473 628.584 203.372 622.087 207.857 616.365C214.183 608.496 221.037 602.026 228.516 595.792C236.192 589.589 243.457 583.422 248.907 575.578C245.777 575.816 242.611 576.054 239.451 576.292Z" fill="#966B28"/>
<path d="M304.897 462.312C287.754 458.298 269.597 456.571 251.55 464.983C240.086 470.064 231.741 479.806 222.26 488.957C220.622 490.606 218.844 492.341 216.803 492.854C213.738 493.623 211.124 491.23 210.264 488.108C209.399 484.993 209.867 481.323 210.312 477.768C211.387 468.096 212.479 458.262 213.593 448.24C215.144 438.613 216.496 428.832 217.671 418.916C219.449 398.696 223.15 379.7 225.258 359.614C224.25 369.404 204.428 393.719 200.724 404.67C193.899 420.993 186.884 436.874 184.252 453.948C183.058 460.179 181.7 467.883 180.807 475.881C180.359 479.881 180.028 483.952 179.883 487.949C179.936 492.03 180.367 496.12 180.924 499.947C183.245 515.346 189.474 526.886 202.667 527.059C211.348 527.199 220.141 522.496 227.612 516.732C234.697 510.786 242.748 504.445 250.371 498.981C255.76 495.267 261.339 492.151 266.93 489.337L275.308 485.303L284.272 481.861C296.105 477.303 307.31 472.74 316.784 465.428C312.887 464.325 308.923 463.256 304.897 462.312Z" fill="#966B28"/>
<path d="M313.391 414.589C302.941 411.165 291.799 409.015 280.207 413.04C273.007 415.537 266.216 420.232 259.43 424.86C258.17 425.646 257.098 426.656 255.807 426.766C253.918 426.961 252.518 425.198 252.213 423.152C251.838 421.061 252.613 418.981 253.255 416.892C256.874 405.527 259.906 393.839 262.4 381.903C264.528 369.661 268.005 358.724 269.897 346.751C269.055 352.644 255.612 365.63 252.846 371.943C247.815 381.197 243.194 390.586 239.568 400.04C236.59 406.882 233.625 417.816 233.474 427.278C233.202 436.703 235.624 444.472 243.642 446.205C248.916 447.358 254.867 445.522 260.183 442.814C265.605 440.169 270.199 436.342 275.775 433.825C291.169 426.85 307.328 425.651 320.762 417.259C318.326 416.321 315.815 415.367 313.391 414.589Z" fill="#966B28"/>
<path d="M413.063 341.474C400.689 332.474 387.224 325.504 370.429 326.22C360.062 326.746 349.047 329.994 339.193 334.607C337.393 335.369 335.461 336.149 333.731 335.864C331.131 335.436 329.915 332.639 330.277 329.865C330.635 327.097 332.189 324.345 333.686 321.674C341.973 307.14 351.163 293.653 359.093 278.575C367.204 263.724 376.156 250.15 383.916 235.003C380.162 242.404 357.165 254.995 350.505 261.784C340.004 272.195 330.039 282.939 321.458 294.098C309.41 312.178 289.417 347.039 310.401 356.91C316.786 359.9 325.627 359.794 333.692 358.186C341.799 356.616 349.671 353.795 357.475 352.075C367.981 349.371 379.635 350.418 390.239 350.416C401.132 350.787 410.997 349.978 421.598 348.053C418.827 345.836 415.988 343.621 413.063 341.474Z" fill="#966B28"/>
<path d="M435.768 306.465C428.577 300.463 420.462 295.24 410.054 294.725C403.592 294.403 396.762 295.939 389.968 297.415C388.762 297.678 387.471 297.935 386.412 297.58C384.822 297.042 384.336 295.237 384.82 293.625C385.307 292.009 386.536 290.539 387.715 289.112C400.659 273.497 411.842 255.721 422.793 239.254C420.313 243.602 405.731 249.484 401.616 253.571C394.794 259.226 388.238 265.113 382.421 271.384C373.225 280.176 358.998 300.81 370.433 308.682C374.149 311.325 379.366 311.809 384.389 311.381C389.307 310.787 394.671 310.023 399.842 309.788C414.172 309.178 427.334 313.366 440.751 310.877C439.103 309.346 437.442 307.848 435.768 306.465Z" fill="#966B28"/>
<path d="M530.024 275.571C523.311 266.437 514.985 257.079 502.984 253.812C495.564 251.874 487.19 252.067 478.856 252.208C477.376 252.23 475.797 252.23 474.649 251.556C472.919 250.536 472.807 248.269 473.793 246.46C474.778 244.652 476.598 243.191 478.353 241.768C497.321 225.328 516.366 210.256 533.825 192.289C529.57 196.623 510.929 200.974 504.589 203.672C494.575 207.487 485.323 213.235 476.785 219.348C470.433 223.895 461.26 230.809 455.317 238.098C449.502 245.792 447.14 254.156 452.778 260.175C456.551 264.312 462.394 265.737 468.591 266.955C474.775 268.122 481.166 268.349 487.241 269.315C495.631 270.65 503.388 273.405 511.002 275.837C518.616 278.253 526.449 281.536 534.598 282.183L530.024 275.571Z" fill="#966B28"/>
<path d="M554.845 255.248C550.93 249.067 546.307 243.762 538.979 241.044C534.435 239.401 529.225 239.009 524.066 238.574C523.154 238.499 522.177 238.401 521.514 237.911C520.514 237.169 520.596 235.756 521.314 234.697C522.031 233.637 523.244 232.847 524.405 232.077C530.785 227.867 536.952 223.278 542.887 218.354C548.841 213.54 554.745 209.299 560.262 204.231C557.578 206.712 546.069 207.977 542.192 209.562C536.152 212.114 530.24 214.891 524.739 218.114C516.469 222.926 501.12 232.749 507.323 241.363C509.325 244.21 512.964 245.996 516.713 247.105C520.461 248.21 524.43 248.736 528.176 249.699C538.565 252.502 547.016 258.019 557.483 259.592L554.845 255.248Z" fill="#966B28"/>
<path d="M628.931 239.104C626.373 233.255 623.042 227.576 616.908 223.948C613.098 221.695 608.502 220.423 603.966 219.13C603.16 218.9 602.304 218.64 601.791 218.091C601.019 217.266 601.318 216.04 602.133 215.242C602.945 214.441 604.151 213.962 605.31 213.495C618.033 208.383 630.211 201.779 641.52 193.997C638.769 195.89 628.377 196.161 624.685 196.912C618.924 198.078 613.235 199.467 607.835 201.315C603.818 202.686 597.934 204.851 593.62 207.748C589.32 210.894 586.633 214.97 588.615 219.105C589.928 221.93 592.833 223.64 596.005 225.294C599.174 226.929 602.643 228.096 605.845 229.608C614.694 233.776 621.44 240.565 630.63 243.225L628.931 239.104Z" fill="#966B28"/>
<path d="M829.793 1240.99C828.633 1241 827.446 1240.88 826.355 1240.71C740.903 1227.59 656.085 1207.53 574.551 1178.63C490.88 1148.97 408.074 1109.61 340.299 1051.39C331.341 1043.69 322.651 1035.67 314.359 1027.26C243.652 955.748 208.811 877.357 208.811 877.354C195.427 847.244 171.826 785.649 168.615 703.868C166.272 644.275 175.003 584.206 194.79 527.911C214.491 471.598 245.075 419.177 284.213 374.244C362.181 283.938 475.38 225.227 594.104 213.825C595.924 213.733 597.503 214.825 597.632 216.261C597.754 217.691 596.411 218.923 594.622 219.018C477.261 230.829 365.809 289.347 289.355 378.703C250.976 423.165 221.1 474.926 201.967 530.413C182.749 585.883 174.438 644.975 176.999 703.516C179.466 762.073 193.115 820.166 217.195 873.601C250.665 947.865 294.828 993.551 317.556 1016.58C353.257 1052.75 394.295 1083.43 438.632 1108.21C535.894 1162.57 647.536 1192.93 755.976 1215.72C779.205 1220.61 802.54 1224.98 825.96 1228.84C828.586 1229.27 831.323 1229.75 833.463 1231.33C835.604 1232.91 836.908 1235.96 835.648 1238.31C834.548 1240.35 832.231 1240.97 829.793 1240.99Z" fill="#966B28"/>
<path d="M1149.79 821.834C1158.83 829.47 1167.87 838.062 1174.64 847.773C1181.2 857.397 1186.08 868.399 1188.04 881.343C1191.05 897.739 1186.89 914.482 1183.2 931.659C1182.53 934.708 1181.87 937.978 1182.76 940.66C1184.11 944.691 1188.67 945.923 1192.79 944.609C1196.92 943.305 1200.72 940.074 1204.41 936.942C1225.49 920.252 1244.2 901.731 1265.23 883.74C1283.72 864.709 1305.32 846.191 1323.54 826.232C1318.62 830.949 1314.69 844.235 1308.48 857.268C1302.79 870.465 1297.36 884.241 1293.66 891.113C1287.62 901.74 1280.26 911.646 1273.29 921.413C1269.74 926.259 1266.13 931.01 1262.46 935.629C1258.8 940.25 1254.34 944.34 1250.23 948.509C1243.98 954.631 1236.16 962.038 1227.69 969.082C1219.5 976.313 1208.9 981.975 1199.62 986.469C1180.57 995.258 1163.29 996.297 1153.95 981.158C1147.74 971.201 1146.75 957.699 1147.77 945.08C1148.29 938.758 1149.29 932.519 1150.31 926.371C1150.98 919.983 1151.44 913.539 1151.6 907.311C1151.76 898.688 1151.1 890.326 1150.07 882.225C1149.14 874.177 1146.6 865.728 1144.85 857.876C1142.95 849.934 1141.15 842.222 1139.94 834.655C1138.81 827.116 1136.89 819.155 1136.76 811.501C1141.12 814.807 1145.5 818.231 1149.79 821.834Z" fill="#966B28"/>
<path d="M1193.39 776.884C1205.69 785.037 1217.21 795.052 1222.67 810.74C1226.52 820.622 1225.42 831.193 1225.51 842.104C1225.48 844.03 1225.48 846.082 1226.37 847.571C1227.7 849.814 1230.66 849.943 1233.02 848.63C1235.39 847.323 1237.3 844.921 1239.16 842.6C1244.1 836.192 1249.93 830.065 1254.69 823.6C1259.49 817.154 1264.5 810.763 1269.7 804.427C1274.89 798.095 1280.27 791.814 1285.81 785.591C1290.75 779.25 1295.79 772.951 1301.04 766.729C1298.49 769.763 1296.37 777.606 1294.54 785.775C1292.19 793.846 1289.7 802.171 1287.98 806.438C1282.15 819.645 1277.16 832.883 1268.54 844.148C1262.55 852.667 1253.43 864.922 1243.87 872.805C1233.67 880.478 1222.87 883.56 1215.05 876.114C1209.71 871.153 1207.77 863.492 1206.29 855.507C1204.76 847.49 1204.43 839.246 1203.13 831.453C1200.27 810.093 1186.76 791.698 1184.68 771.409C1187.58 773.161 1190.51 774.97 1193.39 776.884Z" fill="#966B28"/>
<path d="M1012.96 980.296C1017.34 993.543 1020.78 1007.34 1021.73 1021.6C1022.46 1035.53 1020.19 1049.23 1013.92 1063.35C1006.48 1081.54 991.219 1094.84 976.517 1109.8C973.922 1112.52 970.996 1115.03 969.999 1118.06C968.53 1122.68 972.202 1127.03 977.242 1128.75C982.294 1130.53 988.025 1129.49 993.75 1128.84C1056.46 1121.95 1121.46 1110.03 1185.14 1092.25C1177.22 1094.23 1163.69 1104.29 1150.1 1115.06C1135.85 1125.05 1121.1 1135.3 1112.86 1139.92L1103.14 1145.21L1092.93 1149.62C1086.12 1152.5 1079.32 1155.25 1072.53 1157.86C1065.72 1160.45 1058.98 1162.96 1052.19 1165.17C1045.17 1166.95 1038.18 1168.57 1031.24 1170C1020.86 1171.97 1008.33 1174.84 994.953 1175.73C981.432 1176.31 967.556 1176.05 955.345 1174.18C943.232 1172.68 932.286 1167.92 924.983 1161.87C917.617 1155.73 913.724 1147.67 914.41 1137.35C915.286 1123.56 923.977 1111.39 933.098 1099C937.759 1093.05 942.792 1087.5 947.761 1082.07C952.769 1076.73 957.66 1071.37 961.663 1065.02C972.933 1048.02 980.556 1030.94 986.262 1012.34C989.293 1003.37 992.243 994.718 995.653 986.648C998.598 977.874 1001.92 969.577 1006.3 962.033C1008.63 967.987 1010.9 974.081 1012.96 980.296Z" fill="#966B28"/>
<path d="M1083.3 963.083C1091.41 979.162 1096.88 996.036 1092.32 1014.67C1089.48 1026.22 1083.46 1038.06 1076.05 1048.22C1074.79 1050.1 1073.48 1052.12 1073.41 1054.15C1073.32 1057.2 1076.21 1059.2 1079.43 1059.4C1082.66 1059.6 1086.13 1058.43 1089.5 1057.31C1098.97 1054.54 1107.41 1050.45 1116.59 1047.22C1125.65 1043.84 1134.89 1040.61 1144.3 1037.53C1162.06 1030.33 1180.58 1023.71 1199.31 1017.38C1190.35 1020.59 1170.05 1043.59 1161.56 1050.59C1147.52 1060.69 1132.77 1069.65 1118.12 1077.12C1106.71 1082.08 1089.41 1088.39 1074.73 1090.21C1060.03 1092.14 1046.92 1087.73 1044.04 1075.53C1041.99 1067.31 1044.82 1058.31 1048.22 1049.22C1051.79 1040.36 1056.68 1032.07 1060.3 1023.63C1065.61 1012.37 1066.81 998.937 1069.02 987.096C1071.06 975.027 1073.49 963.768 1077.54 952.17C1079.5 955.728 1081.45 959.362 1083.3 963.083Z" fill="#966B28"/>
<path d="M1178.42 632.066C1189.07 634.292 1200.03 637.279 1209.85 642.12C1219.33 646.998 1228.07 653.698 1235.31 663.205C1239.8 669.105 1243.54 675.863 1246.89 683.052C1249.66 690.243 1251.77 697.858 1254.04 705.509C1254.84 708.23 1255.73 711.121 1257.62 712.837C1260.46 715.421 1264.67 714.324 1267.43 711.421C1270.18 708.521 1271.82 704.255 1273.43 700.119C1275.66 694.479 1277.91 688.794 1280.18 683.058C1282.04 677.375 1283.92 671.642 1285.81 665.858C1289.68 654.347 1293.97 642.721 1298.26 631.009C1301.67 619.377 1305.34 607.625 1309.24 595.767C1311.22 589.863 1313.22 583.909 1315.24 577.901C1317.13 571.955 1318.57 566.08 1320.33 560.129C1318.25 571.451 1323.96 610.363 1324.31 624.441C1324.25 635.451 1322.57 646.481 1321.29 657.233C1319.64 668 1318.48 678.548 1315.34 688.746C1310.41 703.916 1303.7 725.952 1292.52 741.346C1280.94 756.838 1267.46 765.583 1253.24 757.983C1243.85 753.023 1237.19 742.852 1232.57 732.405C1227.61 721.908 1223.04 710.587 1217.98 700.486C1214.24 693.505 1210.52 687.095 1205.57 681.036C1200.55 674.978 1195.37 669.276 1190.36 663.683C1185.36 658.087 1180.54 652.603 1176.25 646.945C1171.91 641.293 1166.92 635.622 1163.39 629.385C1168.36 630.166 1173.38 631.028 1178.42 632.066Z" fill="#966B28"/>
<path d="M1193.83 576.292C1207.35 577.638 1221.07 580.791 1232.39 591.065C1239.05 597.522 1243.36 606.396 1248.08 615.147C1248.9 616.707 1249.81 618.353 1251.18 619.162C1253.23 620.374 1255.66 619.181 1256.98 617.102C1258.31 615.018 1258.79 612.261 1259.26 609.593C1260.55 602.281 1262.04 594.944 1263.71 587.582C1264.9 580.315 1265.99 573.078 1267.43 565.78C1268.82 558.493 1270.39 551.181 1272.13 543.856C1273.02 540.227 1273.91 536.566 1274.82 532.87C1275.53 529.318 1276.24 525.732 1276.96 522.118C1276.17 528.887 1282.08 551.277 1283.02 559.574C1283.72 566.06 1284.27 572.519 1284.61 578.91C1284.99 585.286 1284.11 591.803 1283.52 598.08C1282.45 607.463 1280.52 621.189 1276.32 631.664C1271.62 642.237 1264.21 649.487 1254.7 646.998C1248.21 645.397 1243.4 640.101 1238.57 634.348C1233.81 628.584 1229.91 622.087 1225.43 616.365C1219.1 608.496 1212.25 602.026 1204.77 595.792C1197.09 589.589 1189.83 583.422 1184.38 575.578C1187.51 575.816 1190.67 576.054 1193.83 576.292Z" fill="#966B28"/>
<path d="M1128.38 462.312C1145.53 458.298 1163.68 456.571 1181.73 464.983C1193.19 470.064 1201.54 479.806 1211.02 488.957C1212.66 490.606 1214.44 492.341 1216.48 492.854C1219.54 493.623 1222.16 491.23 1223.02 488.108C1223.88 484.993 1223.42 481.323 1222.97 477.768C1221.9 468.096 1220.8 458.262 1219.69 448.24C1218.14 438.613 1216.78 428.832 1215.61 418.916C1213.83 398.696 1210.13 379.7 1208.03 359.614C1209.03 369.404 1228.86 393.719 1232.56 404.67C1239.38 420.993 1246.4 436.874 1249.03 453.948C1250.23 460.179 1251.58 467.883 1252.48 475.881C1252.92 479.881 1253.26 483.952 1253.4 487.949C1253.35 492.03 1252.92 496.12 1252.36 499.947C1250.04 515.346 1243.81 526.886 1230.62 527.059C1221.94 527.199 1213.14 522.496 1205.67 516.732C1198.59 510.786 1190.53 504.445 1182.91 498.981C1177.52 495.267 1171.94 492.151 1166.35 489.337L1157.97 485.303L1149.01 481.861C1137.18 477.303 1125.97 472.74 1116.5 465.428C1120.39 464.325 1124.36 463.256 1128.38 462.312Z" fill="#966B28"/>
<path d="M1119.89 414.589C1130.34 411.165 1141.48 409.015 1153.08 413.04C1160.28 415.537 1167.07 420.232 1173.85 424.86C1175.11 425.646 1176.19 426.656 1177.48 426.766C1179.36 426.961 1180.76 425.198 1181.07 423.152C1181.45 421.061 1180.67 418.981 1180.03 416.892C1176.41 405.527 1173.38 393.839 1170.88 381.903C1168.75 369.661 1165.28 358.724 1163.38 346.751C1164.23 352.644 1177.67 365.63 1180.44 371.943C1185.47 381.197 1190.09 390.586 1193.71 400.04C1196.69 406.882 1199.66 417.816 1199.81 427.278C1200.08 436.703 1197.66 444.472 1189.64 446.205C1184.37 447.358 1178.42 445.522 1173.1 442.814C1167.68 440.169 1163.08 436.342 1157.51 433.825C1142.11 426.85 1125.95 425.651 1112.52 417.259C1114.96 416.321 1117.47 415.367 1119.89 414.589Z" fill="#966B28"/>
<path d="M1020.22 341.474C1032.59 332.474 1046.06 325.504 1062.85 326.22C1073.22 326.746 1084.24 329.994 1094.09 334.607C1095.89 335.369 1097.82 336.149 1099.55 335.864C1102.15 335.436 1103.37 332.639 1103.01 329.865C1102.65 327.097 1101.09 324.345 1099.59 321.674C1091.31 307.14 1082.12 293.653 1074.19 278.575C1066.08 263.724 1057.13 250.15 1049.36 235.003C1053.12 242.404 1076.12 254.995 1082.78 261.784C1093.28 272.195 1103.24 282.939 1111.82 294.098C1123.87 312.178 1143.87 347.039 1122.88 356.91C1116.5 359.9 1107.65 359.794 1099.59 358.186C1091.48 356.616 1083.61 353.795 1075.81 352.075C1065.3 349.371 1053.65 350.418 1043.04 350.416C1032.15 350.787 1022.28 349.978 1011.68 348.053C1014.45 345.836 1017.29 343.621 1020.22 341.474Z" fill="#966B28"/>
<path d="M997.512 306.465C1004.71 300.463 1012.82 295.24 1023.23 294.725C1029.69 294.403 1036.52 295.939 1043.31 297.415C1044.52 297.678 1045.81 297.935 1046.87 297.58C1048.46 297.042 1048.95 295.237 1048.46 293.625C1047.97 292.009 1046.75 290.539 1045.57 289.112C1032.62 273.497 1021.44 255.721 1010.49 239.254C1012.97 243.602 1027.55 249.484 1031.67 253.571C1038.49 259.226 1045.05 265.113 1050.86 271.384C1060.06 280.176 1074.28 300.81 1062.85 308.682C1059.13 311.325 1053.92 311.809 1048.89 311.381C1043.98 310.787 1038.61 310.023 1033.44 309.788C1019.11 309.178 1005.95 313.366 992.532 310.877C994.178 309.346 995.838 307.848 997.512 306.465Z" fill="#966B28"/>
<path d="M903.259 275.571C909.972 266.437 918.295 257.079 930.296 253.812C937.72 251.874 946.09 252.067 954.424 252.208C955.905 252.23 957.483 252.23 958.634 251.556C960.361 250.536 960.476 248.269 959.488 246.46C958.505 244.652 956.683 243.191 954.928 241.768C935.962 225.328 916.915 210.256 899.458 192.289C903.713 196.623 922.351 200.974 928.694 203.672C938.705 207.487 947.957 213.235 956.495 219.348C962.85 223.895 972.023 230.809 977.966 238.098C983.778 245.792 986.143 254.156 980.505 260.175C976.729 264.312 970.89 265.737 964.689 266.955C958.508 268.122 952.117 268.349 946.04 269.315C937.653 270.65 929.896 273.405 922.281 275.837C914.667 278.253 906.835 281.536 898.685 282.183L903.259 275.571Z" fill="#966B28"/>
<path d="M878.435 255.248C882.354 249.067 886.973 243.762 894.302 241.044C898.845 239.401 904.058 239.009 909.214 238.574C910.129 238.499 911.104 238.401 911.767 237.911C912.767 237.169 912.688 235.756 911.969 234.697C911.249 233.637 910.04 232.847 908.875 232.077C902.496 227.867 896.331 223.278 890.397 218.354C884.442 213.54 878.538 209.299 873.018 204.231C875.703 206.712 887.211 207.977 891.088 209.562C897.129 212.114 903.044 214.891 908.545 218.114C916.811 222.926 932.16 232.749 925.96 241.363C923.956 244.21 920.319 245.996 916.57 247.105C912.822 248.21 908.853 248.736 905.107 249.699C894.719 252.502 886.264 258.019 875.798 259.592L878.435 255.248Z" fill="#966B28"/>
<path d="M804.352 239.104C806.911 233.255 810.242 227.576 816.375 223.948C820.182 221.695 824.782 220.423 829.317 219.13C830.124 218.9 830.977 218.64 831.49 218.091C832.262 217.266 831.962 216.04 831.148 215.242C830.336 214.441 829.132 213.962 827.971 213.495C815.248 208.383 803.07 201.779 791.76 193.997C794.512 195.89 804.904 196.161 808.596 196.912C814.357 198.078 820.048 199.467 825.448 201.315C829.466 202.686 835.347 204.851 839.661 207.748C843.963 210.894 846.648 214.97 844.666 219.105C843.353 221.93 840.45 223.64 837.279 225.294C834.107 226.929 830.641 228.096 827.438 229.608C818.587 233.776 811.843 240.565 802.653 243.225L804.352 239.104Z" fill="#966B28"/>
<path d="M603.488 1240.99C604.65 1241 605.837 1240.88 606.928 1240.71C692.377 1227.59 777.195 1207.53 858.73 1178.63C942.4 1148.97 1025.21 1109.61 1092.98 1051.39C1101.94 1043.69 1110.63 1035.67 1118.92 1027.26C1189.63 955.748 1224.47 877.357 1224.47 877.354C1237.85 847.244 1261.45 785.649 1264.67 703.868C1267.01 644.275 1258.28 584.206 1238.49 527.911C1218.79 471.598 1188.21 419.177 1149.07 374.244C1071.1 283.938 957.901 225.227 839.179 213.825C837.357 213.733 835.778 214.825 835.652 216.261C835.526 217.691 836.873 218.923 838.661 219.018C956.019 230.829 1067.47 289.347 1143.92 378.703C1182.3 423.165 1212.18 474.926 1231.32 530.413C1250.53 585.883 1258.84 644.975 1256.28 703.516C1253.82 762.073 1240.17 820.166 1216.09 873.601C1182.62 947.865 1138.45 993.551 1115.72 1016.58C1080.02 1052.75 1038.99 1083.43 994.649 1108.21C897.387 1162.57 785.745 1192.93 677.305 1215.72C654.075 1220.61 630.74 1224.98 607.32 1228.84C604.697 1229.27 601.96 1229.75 599.821 1231.33C597.679 1232.91 596.375 1235.96 597.635 1238.31C598.732 1240.35 601.052 1240.97 603.488 1240.99Z" fill="#966B28"/>
</svg>
